<svg width="39" height="39" viewBox="0 0 39 39" fill="none" xmlns="http://www.w3.org/2000/svg">
<g clip-path="url(#clip0)">
<path fill-rule="evenodd" clip-rule="evenodd" d="M28.2994 23.3708C27.8151 23.1287 25.441 21.9619 24.999 21.7994C24.557 21.6386 24.2353 21.5589 23.9119 22.0432C23.5901 22.5242 22.6655 23.6129 22.3844 23.9347C22.1016 24.2581 21.8205 24.2971 21.3379 24.0566C20.8552 23.8128 19.2985 23.3042 17.4541 21.6597C16.0193 20.3792 15.0491 18.7981 14.768 18.3138C14.4869 17.8312 14.7371 17.5696 14.9793 17.3291C15.197 17.1129 15.4619 16.7652 15.704 16.4841C15.9461 16.2013 16.0258 15.9998 16.1866 15.6764C16.3491 15.3547 16.2679 15.0736 16.146 14.8314C16.0257 14.5893 15.0605 12.2119 14.6575 11.2451C14.2659 10.3042 13.8678 10.4326 13.572 10.4163C13.2893 10.4033 12.9675 10.4001 12.6458 10.4001C12.324 10.4001 11.8007 10.5203 11.3587 11.0046C10.9151 11.4872 9.66875 12.6556 9.66875 15.0329C9.66875 17.4087 11.3977 19.7048 11.6399 20.0282C11.882 20.3499 15.0443 25.2282 19.8884 27.3196C21.0421 27.8168 21.9408 28.1142 22.6411 28.3352C23.7981 28.7041 24.8511 28.6521 25.6831 28.5269C26.6094 28.3888 28.5399 27.3586 28.9429 26.2308C29.3443 25.1031 29.3442 24.1362 29.224 23.9347C29.1037 23.7332 28.782 23.6129 28.2977 23.3708H28.2994ZM19.4886 35.4007H19.4821C16.6049 35.4012 13.7806 34.6278 11.3051 33.1614L10.7201 32.8137L4.63938 34.4094L6.26275 28.4814L5.88088 27.8737C4.27235 25.3133 3.4211 22.35 3.4255 19.3262C3.42875 10.4699 10.634 3.26469 19.4951 3.26469C23.7851 3.26469 27.8184 4.93844 30.8506 7.97394C32.3462 9.46338 33.5317 11.2346 34.3383 13.1852C35.145 15.1357 35.5569 17.2268 35.5501 19.3376C35.5469 28.1938 28.3416 35.4007 19.4886 35.4007ZM33.1581 5.66807C31.3677 3.86582 29.2374 2.43681 26.8906 1.46387C24.5439 0.49092 22.0274 -0.0066239 19.487 6.65885e-05C8.83675 6.65885e-05 0.16575 8.66944 0.1625 19.3246C0.160875 22.7306 1.04975 26.0553 2.74137 28.9852L0 39.0001L10.244 36.3123C13.0778 37.8563 16.2534 38.6652 19.4805 38.6653H19.4886C30.1389 38.6653 38.8099 29.9959 38.8131 19.3392C38.821 16.7998 38.3252 14.284 37.3546 11.9374C36.3839 9.59076 34.9576 7.45991 33.1581 5.66807Z" fill="white"/>
</g>
<defs>
<clipPath id="clip0">
<rect width="39" height="39" fill="white"/>
</clipPath>
</defs>
</svg>
