<svg width="79" height="93" viewBox="0 0 79 93" fill="none" xmlns="http://www.w3.org/2000/svg">
<path d="M57.6042 17.4375C51.1854 17.4375 44.2729 18.9875 39.5 23.25C34.7271 18.9875 27.8146 17.4375 21.3959 17.4375C16.6229 17.4375 11.5538 18.29 7.30752 20.4987C4.9046 21.7775 3.29169 24.5287 3.29169 27.6675V71.3775C3.29169 76.415 7.30752 80.135 11.455 78.895C14.6809 77.9263 18.1042 77.5 21.3959 77.5C26.5309 77.5 31.995 78.5075 36.4059 81.065C38.3809 82.2275 40.6192 82.2275 42.5613 81.065C46.9721 78.4688 52.4363 77.5 57.5713 77.5C60.8629 77.5 64.2863 77.9263 67.5121 78.895C71.6596 80.1738 75.6754 76.4538 75.6754 71.3775V27.6675C75.6754 24.5287 74.0625 21.7775 71.6596 20.4987C67.4463 18.29 62.3771 17.4375 57.6042 17.4375ZM69.125 66.7663C69.125 69.2075 67.2159 70.99 65.175 70.5638C62.7063 70.0212 60.1388 69.7888 57.6042 69.7888C52.0084 69.7888 43.9438 72.3075 39.5 75.6013V31C43.9438 27.7063 52.0084 25.1875 57.6042 25.1875C60.6325 25.1875 63.6279 25.5363 66.4917 26.2725C68.0059 26.66 69.125 28.2488 69.125 30.07V66.7663Z" fill="black"/>
<path d="M46.0175 42.6638C44.9642 42.6638 44.0096 41.8888 43.6804 40.6488C43.2525 39.1375 43.9767 37.4713 45.2604 37.0063C50.3296 35.0688 56.88 34.4488 62.9038 35.2625C64.2533 35.4563 65.2408 36.89 65.0763 38.4788C64.9117 40.0675 63.6938 41.23 62.3442 41.0363C57.0117 40.3 51.1854 40.8813 46.7746 42.5475C46.5113 42.5863 46.2479 42.6638 46.0175 42.6638ZM46.0175 52.9713C44.9642 52.9713 44.0096 52.1963 43.6804 50.9563C43.2525 49.445 43.9767 47.7788 45.2604 47.3138C50.2967 45.3763 56.88 44.7563 62.9038 45.57C64.2533 45.7638 65.2408 47.1975 65.0763 48.7863C64.9117 50.375 63.6938 51.5375 62.3442 51.3438C57.0117 50.6075 51.1854 51.1888 46.7746 52.855C46.5271 52.9293 46.2729 52.9683 46.0175 52.9713ZM46.0175 63.2788C44.9642 63.2788 44.0096 62.5038 43.6804 61.2638C43.2525 59.7525 43.9767 58.0863 45.2604 57.6213C50.2967 55.6838 56.88 55.0638 62.9038 55.8775C64.2533 56.0713 65.2408 57.505 65.0763 59.0938C64.9117 60.6825 63.6938 61.8063 62.3442 61.6513C57.0117 60.915 51.1854 61.4963 46.7746 63.1625C46.5271 63.2368 46.2729 63.2758 46.0175 63.2788Z" fill="black"/>
</svg>
