<svg width="75" height="80" viewBox="0 0 75 80" fill="none" xmlns="http://www.w3.org/2000/svg">
<path d="M47.168 65C47.168 70.5234 44.1431 75 38.9648 75H19.6289C14.4507 75 11.4258 70.5234 11.4258 65" stroke="black" stroke-width="6" stroke-miterlimit="10" stroke-linecap="round"/>
<path d="M49.2188 52.5C51.8071 52.5 53.9062 55.2984 53.9062 58.75C53.9062 62.2016 51.8071 65 49.2188 65H9.375C6.78662 65 4.6875 62.2016 4.6875 58.75C4.6875 55.2984 6.78662 52.5 9.375 52.5" stroke="black" stroke-width="6" stroke-miterlimit="10" stroke-linecap="round"/>
<path d="M50.3906 52.5H26.2661C25.9557 52.5002 25.6581 52.6316 25.4385 52.8656L21.5083 57.0578C21.4539 57.1159 21.3893 57.162 21.3181 57.1935C21.247 57.2249 21.1708 57.2411 21.0938 57.2411C21.0167 57.2411 20.9405 57.2249 20.8694 57.1935C20.7982 57.162 20.7336 57.1159 20.6792 57.0578L16.749 52.8656C16.5294 52.6316 16.2318 52.5002 15.9214 52.5H8.20312C7.27072 52.5 6.37651 52.1049 5.7172 51.4017C5.0579 50.6984 4.6875 49.7446 4.6875 48.75V48.75C4.6875 47.7554 5.0579 46.8016 5.7172 46.0984C6.37651 45.3951 7.27072 45 8.20312 45H50.3906C51.323 45 52.2172 45.3951 52.8765 46.0984C53.5359 46.8016 53.9062 47.7554 53.9062 48.75C53.9062 49.7446 53.5359 50.6984 52.8765 51.4017C52.2172 52.1049 51.323 52.5 50.3906 52.5Z" stroke="black" stroke-width="6" stroke-miterlimit="10" stroke-linecap="round"/>
<path d="M9.375 43.125V43.0906C9.375 34.4969 15.9668 30 24.0234 30H34.5703C42.627 30 49.2188 34.5312 49.2188 43.125V43.0906" stroke="black" stroke-width="6" stroke-miterlimit="10" stroke-linecap="round"/>
<path d="M35.3027 17.5L36.3926 27.4953" stroke="black" stroke-width="6" stroke-miterlimit="10" stroke-linecap="round"/>
<path d="M37.5 75H57.9067C59.0893 75 60.2282 74.5232 61.0951 73.6652C61.9619 72.8071 62.4927 71.6313 62.5811 70.3734L67.8223 17.5" stroke="black" stroke-width="6" stroke-miterlimit="10" stroke-linecap="round"/>
<path d="M53.9062 17.5L56.25 7.5L63.1348 5" stroke="black" stroke-width="6" stroke-linecap="round" stroke-linejoin="round"/>
<path d="M32.8125 17.5H70.3125" stroke="black" stroke-width="6" stroke-miterlimit="10" stroke-linecap="round"/>
</svg>
