<svg width="79" height="93" viewBox="0 0 79 93" fill="none" xmlns="http://www.w3.org/2000/svg">
<g clip-path="url(#clip0)">
<path d="M23.4531 14.5312V5.8125C23.4531 4.65632 23.8432 3.5475 24.5377 2.72996C25.2322 1.91242 26.1741 1.45313 27.1562 1.45313C28.1383 1.45313 29.0803 1.91242 29.7747 2.72996C30.4692 3.5475 30.8593 4.65632 30.8593 5.8125V14.5312C30.8593 15.6874 30.4692 16.7963 29.7747 17.6138C29.0803 18.4313 28.1383 18.8906 27.1562 18.8906C26.1741 18.8906 25.2322 18.4313 24.5377 17.6138C23.8432 16.7963 23.4531 15.6874 23.4531 14.5312ZM39.5 18.8906C40.4821 18.8906 41.424 18.4313 42.1185 17.6138C42.8129 16.7963 43.2031 15.6874 43.2031 14.5312V5.8125C43.2031 4.65632 42.8129 3.5475 42.1185 2.72996C41.424 1.91241 40.4821 1.45313 39.5 1.45312C38.5178 1.45313 37.5759 1.91241 36.8815 2.72996C36.187 3.5475 35.7968 4.65632 35.7968 5.8125V14.5312C35.7968 15.6874 36.187 16.7963 36.8815 17.6138C37.5759 18.4313 38.5178 18.8906 39.5 18.8906ZM51.8437 18.8906C52.8258 18.8906 53.7677 18.4313 54.4622 17.6138C55.1567 16.7963 55.5468 15.6874 55.5468 14.5312V5.8125C55.5468 4.65632 55.1567 3.5475 54.4622 2.72996C53.7677 1.91241 52.8258 1.45313 51.8437 1.45312C50.8616 1.45313 49.9197 1.91241 49.2252 2.72996C48.5307 3.5475 48.1406 4.65632 48.1406 5.8125V14.5312C48.1406 15.6874 48.5307 16.7963 49.2252 17.6138C49.9197 18.4313 50.8616 18.8906 51.8437 18.8906ZM77.5187 38.3625L69.125 45.7734V66.8438C69.1217 70.3111 67.9502 73.6353 65.8675 76.0871C63.7848 78.5389 60.961 79.918 58.0156 79.9219H20.9843C18.039 79.918 15.2151 78.5389 13.1324 76.0871C11.0497 73.6353 9.87824 70.3111 9.87497 66.8438V45.7734L1.48122 38.3625C0.695515 37.6688 0.176082 36.6361 0.0371876 35.4915C-0.101706 34.347 0.151316 33.1843 0.740594 32.2594C1.32987 31.3344 2.20713 30.7229 3.17939 30.5594C4.15165 30.3959 5.13927 30.6938 5.92497 31.3875L9.87497 34.875V31.9688C9.87677 30.0424 10.5276 28.1956 11.6847 26.8335C12.8417 25.4714 14.4105 24.7052 16.0468 24.7031H62.9531C64.5894 24.7052 66.1582 25.4714 67.3153 26.8335C68.4724 28.1956 69.1232 30.0424 69.125 31.9688V34.875L73.075 31.3875C73.8607 30.6938 74.8483 30.3959 75.8205 30.5594C76.7928 30.7229 77.6701 31.3344 78.2593 32.2594C78.8486 33.1843 79.1016 34.347 78.9628 35.4915C78.8239 36.6361 78.3044 37.6688 77.5187 38.3625ZM61.7187 33.4219H17.2812V66.8438C17.2824 67.9995 17.6729 69.1076 18.3671 69.9248C19.0613 70.7421 20.0026 71.2018 20.9843 71.2031H58.0156C58.9974 71.2018 59.9386 70.7421 60.6328 69.9248C61.3271 69.1076 61.7176 67.9995 61.7187 66.8438V33.4219Z" fill="black"/>
</g>
<defs>
<clipPath id="clip0">
<rect width="79" height="93" fill="white"/>
</clipPath>
</defs>
</svg>
