<svg width="43" height="43" viewBox="0 0 43 43" fill="none" xmlns="http://www.w3.org/2000/svg">
<path d="M35.5968 4.70312H7.40322C5.9125 4.70312 4.70312 5.9125 4.70312 7.40322V35.5968C4.70312 37.0875 5.9125 38.2969 7.40322 38.2969H35.5968C37.0875 38.2969 38.2969 37.0875 38.2969 35.5968V7.40322C38.2969 5.9125 37.0875 4.70312 35.5968 4.70312ZM35.5968 35.6094C16.7927 35.6052 7.39062 35.601 7.39062 35.5968C7.39482 16.7927 7.39902 7.39062 7.40322 7.39062C26.2073 7.39482 35.6094 7.39902 35.6094 7.40322C35.6052 26.2073 35.601 35.6094 35.5968 35.6094ZM9.6834 17.2966H14.6679V33.3292H9.6834V17.2966ZM12.1777 15.1046C13.7692 15.1046 15.0668 13.8112 15.0668 12.2155C15.0668 11.8361 14.9921 11.4604 14.8469 11.1099C14.7017 10.7594 14.4889 10.4409 14.2206 10.1727C13.9523 9.90438 13.6338 9.69157 13.2833 9.54638C12.9328 9.40119 12.5571 9.32647 12.1777 9.32647C11.7983 9.32647 11.4227 9.40119 11.0721 9.54638C10.7216 9.69157 10.4031 9.90438 10.1349 10.1727C9.86658 10.4409 9.65378 10.7594 9.50859 11.1099C9.3634 11.4604 9.28867 11.8361 9.28867 12.2155C9.28447 13.8112 10.5778 15.1046 12.1777 15.1046ZM22.7724 25.3969C22.7724 23.3057 23.1713 21.2816 25.7622 21.2816C28.3153 21.2816 28.3531 23.671 28.3531 25.5312V33.3292H33.3334V24.536C33.3334 20.2192 32.4012 16.8977 27.3579 16.8977C24.935 16.8977 23.3099 18.2288 22.6422 19.4886H22.575V17.2966H17.7921V33.3292H22.7724V25.3969Z" fill="white"/>
</svg>
