<svg width="39" height="39" viewBox="0 0 39 39" fill="none" xmlns="http://www.w3.org/2000/svg">
<path d="M19.5 35.75C28.4749 35.75 35.75 28.4749 35.75 19.5C35.75 10.5251 28.4749 3.25 19.5 3.25C10.5251 3.25 3.25 10.5251 3.25 19.5C3.25 28.4749 10.5251 35.75 19.5 35.75Z" stroke="white" stroke-width="4" stroke-linejoin="round"/>
<path d="M12.1875 26.8125L15.8438 15.8438L26.8125 12.1875L23.1563 23.1562L12.1875 26.8125Z" stroke="white" stroke-width="4" stroke-linejoin="round"/>
<path fill-rule="evenodd" clip-rule="evenodd" d="M19.5 21.125C19.931 21.125 20.3443 20.9538 20.649 20.649C20.9538 20.3443 21.125 19.931 21.125 19.5C21.125 19.069 20.9538 18.6557 20.649 18.351C20.3443 18.0462 19.931 17.875 19.5 17.875C19.069 17.875 18.6557 18.0462 18.351 18.351C18.0462 18.6557 17.875 19.069 17.875 19.5C17.875 19.931 18.0462 20.3443 18.351 20.649C18.6557 20.9538 19.069 21.125 19.5 21.125Z" fill="white"/>
</svg>
